<?xml version="1.0" encoding="UTF-8" standalone="no"?>
<!-- Generator: Adobe Illustrator 27.4.0, SVG Export Plug-In . SVG Version: 6.00 Build 0)  -->

<svg
   xmlns:dc="http://purl.org/dc/elements/1.1/"
   xmlns:cc="http://creativecommons.org/ns#"
   xmlns:rdf="http://www.w3.org/1999/02/22-rdf-syntax-ns#"
   xmlns:svg="http://www.w3.org/2000/svg"
   xmlns="http://www.w3.org/2000/svg"
   xmlns:sodipodi="http://sodipodi.sourceforge.net/DTD/sodipodi-0.dtd"
   xmlns:inkscape="http://www.inkscape.org/namespaces/inkscape"
   version="1.1"
   id="artwork"
   x="0px"
   y="0px"
   viewBox="0 0 1058.26 309.99998"
   xml:space="preserve"
   sodipodi:docname="male.svg"
   width="1058.26"
   height="310"
   inkscape:version="0.92.5 (2060ec1f9f, 2020-04-08)"><metadata
   id="metadata13"><rdf:RDF><cc:Work
       rdf:about=""><dc:format>image/svg+xml</dc:format><dc:type
         rdf:resource="http://purl.org/dc/dcmitype/StillImage" /><dc:title></dc:title></cc:Work></rdf:RDF></metadata><defs
   id="defs11" /><sodipodi:namedview
   pagecolor="#ffffff"
   bordercolor="#666666"
   borderopacity="1"
   objecttolerance="10"
   gridtolerance="10"
   guidetolerance="10"
   inkscape:pageopacity="0"
   inkscape:pageshadow="2"
   inkscape:window-width="2498"
   inkscape:window-height="1282"
   id="namedview9"
   showgrid="false"
   inkscape:zoom="1.1213358"
   inkscape:cx="342.63763"
   inkscape:cy="287.72064"
   inkscape:window-x="62"
   inkscape:window-y="218"
   inkscape:window-maximized="0"
   inkscape:current-layer="artwork" />
<style
   type="text/css"
   id="style2">
	.st0{fill:#143C7D;}
	.st1{fill:#C82828;}
</style>

<g
   id="g4283"
   transform="matrix(1.0470542,0,0,1.0470542,-39.832647,-186.56668)"><path
     style="fill:#143c7d;stroke-width:2.08446121"
     inkscape:connector-curvature="0"
     id="path4"
     d="m 605.72951,429.0537 h 7.31646 v 26.45181 c 0,7.96264 -4.81511,13.06957 -12.73606,13.06957 -7.92095,0 -12.73606,-5.08608 -12.73606,-13.06957 V 429.0537 h 8.40038 v 26.72279 c 0,4.4399 2.00108,6.29507 4.87764,6.29507 2.87655,0 4.87764,-1.83432 4.87764,-6.29507 z m 26.55603,0 h -8.40038 v 38.41662 h 20.05252 v -6.50352 h -11.65214 z m 11.92312,6.50352 h 7.48322 v 31.9131 h 8.40037 v -31.9131 h 7.42069 v -6.50352 h -23.30428 z m 31.1627,31.93394 h 8.40037 v -38.41662 h -8.40037 z m 36.20709,-10.35977 -6.3993,-28.07769 h -10.02626 v 38.41662 h 6.7745 v -23.84624 l 5.58636,23.84624 h 6.7745 l 5.58635,-23.84624 v 23.84624 h 7.85842 V 429.0537 h -9.65105 z m 43.35679,-28.07769 9.96372,38.41662 h -8.40037 l -2.06362,-7.96264 h -9.21332 l -2.06362,7.96264 h -7.04548 l 9.96373,-38.41662 z m -1.95939,24.78424 -3.14754,-12.08987 -3.14754,12.08987 z m 14.36193,-18.28072 h 7.48322 v 31.9131 h 8.40038 v -31.9131 h 7.42068 v -6.50352 h -23.30428 z m 31.1627,31.93394 H 818.553 v -6.50352 h -11.65214 v -9.54683 h 10.2347 v -6.23254 h -10.2347 v -9.65105 H 818.553 v -6.50352 h -20.05252 z m 47.52571,0 h 8.40038 v -16.09204 h 10.23471 v -6.23254 h -10.23471 v -9.58852 h 11.65214 v -6.50352 h -20.05252 z m 53.34137,-8.1294 c 0,2.81403 0.10422,6.0241 1.08392,8.1294 h -8.94234 c -0.43774,-1.18814 -0.54196,-4.33568 -0.54196,-6.87872 v -4.16892 c 0,-1.52166 -0.0625,-4.54413 -4.0647,-4.54413 h -3.18923 v 15.61262 h -8.40038 v -38.41662 h 13.1738 c 7.31646,0 11.27693,5.14862 11.27693,10.50568 0,3.85626 -2.27206,6.94126 -5.48213,8.87981 2.87656,1.14645 5.08609,3.14753 5.08609,7.64997 z m -8.02518,-18.9269 c 0,-2.98078 -1.89686,-4.87764 -4.94017,-4.87764 h -2.7098 v 9.81781 h 2.7098 c 3.04331,0 4.94017,-2.10531 4.94017,-4.94017 z m 18.32241,27.0563 h 8.40038 v -38.41662 h -8.40038 z m 32.78858,-22.72062 c -4.0647,-2.54305 -6.60774,-3.6895 -6.60774,-6.71197 0,-2.23037 1.52165,-3.6895 3.58527,-3.6895 2.98078,0 4.54413,2.7098 3.73119,6.56606 h 7.58743 c 1.18815,-7.92096 -4.0647,-13.06957 -11.27693,-13.06957 -6.94126,0 -11.8189,4.77341 -11.8189,11.04764 0,4.27315 2.23038,8.02518 8.7339,11.98565 3.41851,2.10531 7.25392,3.62696 7.25392,7.1497 0,2.37629 -1.79264,4.00217 -4.16892,4.00217 -3.35598,0 -5.08609,-3.25176 -3.96048,-7.79589 h -8.1294 c -1.25067,8.7339 4.00217,14.29941 11.86059,14.29941 6.67027,0 12.73606,-3.96048 12.73606,-11.38116 0.0208,-4.64835 -2.37629,-7.90011 -9.52599,-12.40254 z m 44.1072,11.7772 c 0,6.29507 -5.08609,10.94342 -11.75636,10.94342 h -13.61154 v -38.41662 h 12.1941 c 6.50352,0 11.31863,3.96048 11.31863,9.81782 0,4.71088 -3.14754,6.94125 -4.87764,8.19193 3.81456,1.1673 6.73281,4.69004 6.73281,9.46345 z m -16.96752,-11.81889 h 2.23038 c 2.64726,0 4.60666,-1.83433 4.60666,-4.6692 0,-2.87655 -1.9594,-4.50243 -4.60666,-4.50243 h -2.23038 z m 8.29616,11.00595 c 0,-3.04331 -2.16784,-5.04439 -5.21115,-5.04439 h -3.08501 v 10.29723 h 3.08501 c 3.04331,0 5.21115,-2.23037 5.21115,-5.25284 z m 18.42664,11.75636 h 20.05255 v -6.50352 h -11.6522 v -9.54683 h 10.2347 v -6.23254 h -10.2347 v -9.65105 h 11.6522 v -6.50352 h -20.05255 z m 49.31835,-31.93394 v -6.50352 h -20.0525 v 38.41662 h 20.0525 v -6.50352 h -11.6522 v -9.54683 h 10.2348 v -6.23254 h -10.2348 v -9.65106 h 11.6522 z M 57.620435,434.36907 c 2.501354,0 4.398214,2.50136 4.231457,8.06687 h 8.129398 c 0,-8.87981 -4.710882,-14.57038 -12.298321,-14.57038 -10.088792,0 -14.153491,9.81781 -14.153491,20.32349 0,10.50569 4.064699,20.38603 14.153491,20.38603 7.587439,0 12.298321,-5.75311 12.298321,-14.63291 h -8.129398 c 0.166757,5.58635 -1.730103,8.12939 -4.231457,8.12939 -3.043313,0 -5.148619,-3.73118 -5.148619,-13.88251 0,-10.15132 2.105306,-13.81998 5.148619,-13.81998 z m 3.752031,-9.58852 5.461288,-8.5046 h -6.336762 l -2.814023,4.66919 -2.918245,-4.66919 h -6.399296 l 5.628045,8.5046 z m 18.364103,42.71061 h 20.052514 v -6.50352 H 88.136947 v -9.54683 h 10.234706 v -6.23254 H 88.136947 v -9.65105 H 99.789083 V 429.0537 H 79.736569 Z m 42.272871,-22.72062 c -4.0647,-2.54305 -6.60774,-3.6895 -6.60774,-6.71197 0,-2.23037 1.52165,-3.6895 3.58527,-3.6895 2.98078,0 4.54413,2.7098 3.73119,6.56606 h 7.58743 c 1.18815,-7.92096 -4.06469,-13.06957 -11.27693,-13.06957 -6.94126,0 -11.8189,4.77341 -11.8189,11.04764 0,4.27315 2.23038,8.02518 8.7339,11.98565 3.41851,2.10531 7.25392,3.62696 7.25392,7.1497 0,2.37629 -1.79263,4.00217 -4.16892,4.00217 -3.35598,0 -5.08609,-3.25176 -3.96048,-7.79589 h -8.1294 c -1.25067,8.7339 4.00217,14.29941 11.86059,14.29941 6.67027,0 12.73606,-3.96048 12.73606,-11.38116 0.0208,-4.64835 -2.37629,-7.90011 -9.52599,-12.40254 z m 43.62777,-15.75853 h -7.75419 l -8.7339,15.71684 v -15.65431 h -8.40037 v 38.41662 h 8.42122 v -16.32133 l 7.79588,16.32133 h 9.58853 l -10.50569,-21.19897 z m 24.59665,0.0417 9.96372,38.41662 h -8.40038 l -2.06361,-7.96264 h -9.21332 l -2.06362,7.96264 h -7.04548 l 9.96373,-38.41662 z m -1.93855,24.78424 -3.14754,-12.02734 -3.14754,12.02734 z m 6.98294,-37.56199 h -7.58744 l -4.71088,8.5046 h 6.06578 z m 47.42149,12.77775 9.96373,38.41662 h -8.40038 l -2.06362,-7.96264 h -9.21331 l -2.06362,7.96264 h -7.04548 l 9.98457,-38.41662 z m -1.93854,24.78424 -3.14754,-12.08987 -3.14754,12.08987 z m 33.30969,-9.0674 c -4.0647,-2.54305 -6.60775,-3.6895 -6.60775,-6.71197 0,-2.23037 1.52166,-3.6895 3.58528,-3.6895 2.98078,0 4.54412,2.7098 3.73118,6.56606 h 7.58744 c 1.18814,-7.92096 -4.0647,-13.06957 -11.27693,-13.06957 -6.94126,0 -11.8189,4.77341 -11.8189,11.04764 0,4.27315 2.23037,8.02518 8.73389,11.98565 3.41852,2.10531 7.25393,3.62696 7.25393,7.1497 0,2.37629 -1.79264,4.00217 -4.16892,4.00217 -3.35599,0 -5.08609,-3.25176 -3.96048,-7.79589 h -8.1294 c -1.25068,8.7339 4.00217,14.29941 11.88143,14.29941 6.67028,0 12.73606,-3.96048 12.73606,-11.38116 0,-4.64835 -2.37629,-7.90011 -9.54683,-12.40254 z m 45.4204,3.48105 c 0,11.31862 -4.66919,20.32349 -14.15349,20.32349 -9.4843,0 -14.15349,-9.00487 -14.15349,-20.32349 0,-11.38116 4.66919,-20.38603 14.15349,-20.38603 9.50515,0 14.15349,9.00487 14.15349,20.38603 z m -8.94233,0 c 0,-10.19302 -2.06362,-13.88252 -5.21116,-13.88252 -3.14753,0 -5.21115,3.6895 -5.21115,13.88252 0,10.13048 2.06362,13.81997 5.21115,13.81997 3.14754,0 5.21116,-3.68949 5.21116,-13.81997 z m 31.16269,-13.88252 c 2.50135,0 4.39821,2.50136 4.23146,8.06687 h 8.1294 c 0,-8.87981 -4.71089,-14.57038 -12.29832,-14.57038 -10.0888,0 -14.1535,9.81781 -14.1535,20.32349 0,10.50569 4.0647,20.38603 14.1535,20.38603 7.58743,0 12.29832,-5.75311 12.29832,-14.63291 h -8.1294 c 0.16675,5.58635 -1.73011,8.12939 -4.23146,8.12939 -3.04331,0 -5.14862,-3.73118 -5.14862,-13.88251 0,-10.15132 2.12615,-13.81998 5.14862,-13.81998 z m 22.11613,33.12209 h 8.40038 v -38.41662 h -8.40038 z m 35.6026,-38.43746 9.96373,38.41662 h -8.40038 l -2.06362,-7.96264 h -9.21332 l -2.06361,7.96264 h -7.04548 l 9.96372,-38.41662 z m -1.93855,24.78424 -3.14753,-12.08987 -3.14754,12.08987 z m 32.78858,-19.46888 c 2.50135,0 4.39821,2.50136 4.23145,8.06687 h 8.1294 c 0,-8.87981 -4.71088,-14.57038 -12.29832,-14.57038 -10.08879,0 -14.15349,9.81781 -14.15349,20.32349 0,10.50569 4.0647,20.38603 14.15349,20.38603 7.58744,0 12.29832,-5.75311 12.29832,-14.63291 h -8.1294 c 0.16676,5.58635 -1.7301,8.12939 -4.23145,8.12939 -3.04332,0 -5.14862,-3.73118 -5.14862,-13.88251 0,-10.15132 2.1053,-13.81998 5.14862,-13.81998 z m 22.11613,33.12209 h 20.05252 v -6.50352 h -11.65214 v -9.54683 h 10.2347 v -6.23254 h -10.2347 v -9.65105 h 11.65214 v -6.50352 h -20.05252 z"
     class="st0" /><path
     style="fill:#c82828;stroke-width:2.08446121"
     inkscape:connector-curvature="0"
     id="path6"
     d="m 995.23193,215.39643 c -0.47943,-5.4196 10.42227,-10.79751 24.32567,-12.02735 13.9242,-1.20898 25.5763,2.18869 26.0557,7.60829 0.4795,5.4196 -10.4223,10.79751 -24.3256,12.02734 -13.9034,1.22983 -25.57635,-2.18869 -26.05577,-7.60828 z m 50.40227,105.55712 c -4.1272,20.26096 -24.0547,51.19436 -55.40498,51.19436 -14.00758,0 -24.34651,-6.00325 -30.97509,-15.17488 -12.92366,6.35761 -26.78533,10.21386 -39.62561,10.21386 -21.72009,0 -33.35138,-14.96643 -35.91527,-34.08094 -6.39929,0.66703 -15.02896,0.81294 -21.78262,0.56281 -8.6922,17.73876 -24.24228,30.95425 -46.23335,33.91418 -7.64997,1.02138 -15.73768,-0.47943 -16.13373,-4.04385 1.52166,-11.94397 3.79372,-27.07715 6.44099,-43.29426 -18.65593,-11.08934 -24.22144,-26.82702 -22.34543,-38.83351 2.00109,-12.7986 15.02897,-23.22091 33.89334,-26.43098 3.04332,-15.90444 5.94072,-30.18299 8.29616,-40.58446 8.42122,-2.04277 18.94775,-0.64618 19.40633,3.41852 -2.35544,10.52653 -4.91933,23.05414 -7.5249,36.49892 27.41066,2.25121 38.29155,18.46833 31.78803,55.55089 -0.79209,4.46075 -1.83432,8.6922 -3.12669,12.71521 4.16892,0.0625 11.63129,-0.10422 16.80076,-0.64618 1.66757,-29.14077 16.46724,-57.40606 32.1007,-61.63752 2.75149,-0.75041 7.21224,-1.60504 15.07065,0.10422 7.02464,1.52166 9.54684,4.31484 10.69329,5.58636 5.62804,6.27423 7.21224,18.63509 -1.08392,35.10233 -3.77287,7.48322 -11.88143,21.63671 -36.9575,28.59881 1.22983,14.84136 8.67136,28.45289 25.76394,25.57634 8.19194,-1.37575 16.80076,-4.33568 25.07607,-8.42123 -4.0647,-10.79751 -4.52328,-23.76285 -1.29236,-36.22793 7.85841,-30.30807 23.20005,-37.04088 28.2236,-38.8752 4.08554,-1.47998 11.29778,-1.27153 18.51,1.29236 4.29399,1.52166 7.04549,3.96048 9.00489,7.87927 3.7312,7.42068 2.9808,17.88467 -1.9803,30.20384 -5.6697,14.09096 -18.07222,27.55658 -33.18456,37.74959 5.35706,10.69329 15.38332,12.31917 19.63562,11.96481 21.97024,-1.83433 37.31184,-23.24174 41.83514,-41.85598 z m -142.32701,-2.89741 c 12.48592,-4.08554 21.0739,-11.00595 26.20167,-21.01136 4.04386,-7.90011 6.3993,-18.00975 3.66866,-22.97077 -1.58419,-2.50135 -4.6692,-2.54304 -7.29562,-1.47996 -9.15078,3.73118 -19.32295,23.95045 -22.57471,45.46209 z m -87.96427,-51.17352 c -10.77666,2.77233 -18.96859,8.58798 -20.59447,16.09204 -1.58419,7.25393 2.00108,17.13427 13.29886,25.20114 2.29291,-13.7366 4.81511,-27.86925 7.29561,-41.29318 z m 27.86925,65.24364 c -6.83703,-0.95886 -12.98619,-2.27207 -18.48917,-3.91879 -1.66757,10.38062 -3.14754,20.15674 -4.37737,28.86979 11.88143,-5.94072 18.51002,-14.59123 22.86654,-24.951 z m -7.56659,-66.70277 c -3.16838,16.90499 -6.31592,34.78967 -9.12994,51.65296 5.83649,1.85517 12.59014,3.33514 20.32349,4.31483 1.29237,-4.73173 2.39713,-9.88034 3.41852,-15.55008 4.56497,-25.61803 -1.00054,-39.33379 -14.61207,-40.41771 z m 134.30183,71.76801 c 11.94396,-8.62967 21.69924,-19.3438 26.01408,-30.22469 5.16941,-12.96535 3.25172,-19.28127 2.43882,-20.99052 -2.54305,-4.89849 -9.54683,-2.20953 -13.84083,3.06415 -11.5896,14.29941 -16.23795,35.16486 -14.61207,48.15106 z M 759.18754,281.78652 c 3.8771,-9.92204 6.44099,-18.69762 6.75365,-24.70087 -0.47942,-4.0647 -11.00595,-5.48213 -19.40633,-3.41852 -3.54358,5.33622 -10.67244,21.1156 -3.89794,38.52085 -7.42068,15.59177 -27.24391,53.54981 -48.92231,72.35165 6.0241,-34.28939 10.77667,-61.65836 16.80076,-89.25663 -0.47942,-4.0647 -11.00595,-5.48214 -19.40633,-3.41852 -7.04548,31.24608 -13.81998,69.01651 -18.00975,102.1386 0.41689,3.54358 8.48376,5.06524 16.13373,4.04385 11.06849,-1.47996 23.57526,-15.0498 38.85436,-37.31185 6.75365,-9.81781 14.17434,-22.69978 20.65701,-35.68597 9.92203,20.11505 18.9686,39.41716 6.10747,50.71494 -6.25338,5.48213 -19.44802,3.02247 -25.34705,-0.33352 l -5.56551,9.65106 c 4.69004,2.58473 13.88251,7.08716 23.51272,7.08716 17.17596,0 29.70358,-10.73497 32.66351,-23.13751 4.02301,-17.00921 -4.29399,-32.64266 -11.67298,-46.00406 -4.2523,-7.71251 -7.23308,-14.73714 -9.25501,-21.24066 z m -84.81673,-5.33622 c 0,0 -4.56497,20.15674 -10.86004,54.98808 -17.34272,3.46021 -18.82268,-3.31429 -18.82268,-3.31429 0,0 3.79372,-20.07336 6.69112,-31.62127 -11.19356,13.94504 -22.30374,32.97617 -28.89064,53.23713 -2.50135,15.02897 -4.64834,29.26584 -5.83649,40.56361 -8.42122,2.04278 -18.94775,0.64619 -19.40633,-3.41851 0,-4.69004 0.85463,-10.06795 2.37629,-15.90444 3.085,-20.17758 7.27476,-45.67054 11.33946,-64.32647 -24.57579,16.92583 -52.23659,17.17596 -61.97103,17.0092 -0.95885,5.35707 -1.9177,10.6516 -2.83486,15.86275 21.05305,10.15133 29.59934,20.71955 29.59934,39.33378 0,26.95209 -32.22577,79.68895 -52.1949,82.39875 -7.64998,1.04223 -15.73769,-0.47942 -16.13373,-4.04385 5.44044,-36.62398 11.42284,-73.60233 17.82214,-110.51813 0,0 -8.04602,-2.91824 -19.26042,-7.00379 -22.22036,-8.08771 -51.23606,-19.76069 -51.23606,-43.41933 0,-8.65051 3.43936,-17.09258 3.43936,-17.09258 29.07824,-16.21711 57.80211,-29.78695 85.8798,-41.12642 2.50136,-18.03059 6.25339,-30.3706 7.98349,-33.99756 8.42122,-2.04278 18.94775,-0.64619 19.40633,3.41851 -1.52165,7.23308 -3.00162,14.46616 -4.48159,21.74093 99.01191,-36.24878 188.89388,-45.35787 256.86816,-45.35787 76.31212,0 128.06929,12.31916 155.81347,19.26042 l -1.41743,8.04602 c -63.18002,-11.96481 -227.81077,-34.87304 -415.59988,39.83405 -1.14645,5.85734 -2.2929,11.71467 -3.41851,17.55117 -2.93909,22.55387 -2.41798,35.49837 -2.06362,40.08419 35.28993,-0.50027 52.57011,-13.59069 58.30238,-19.51056 7.90011,-1.29236 16.61316,0.20845 17.03005,3.89794 -0.81294,4.58582 -1.68842,9.40092 -2.58473,14.32025 9.31754,-14.36193 19.28126,-27.30644 27.74418,-34.85219 7.83757,-1.18814 16.30048,0.33352 16.71737,3.96048 z m -146.49593,55.34244 c 4.2523,-24.05468 8.65051,-47.98429 13.19464,-71.80969 -24.97184,10.86004 -50.2772,23.47104 -75.77016,38.10396 4.85679,10.44315 21.78262,18.84352 54.50866,30.7458 2.91824,1.06307 8.06686,2.95993 8.06686,2.95993 z m 15.6543,22.86654 c -5.96155,36.62398 -12.54845,78.16729 -14.50785,91.36193 16.36303,-14.65376 30.80834,-40.6053 32.74689,-59.11532 1.70926,-16.38386 -6.5869,-25.7014 -18.23904,-32.24661 z M 106.31345,222.29599 126.32427,191.19583 h -23.1792 L 92.84783,208.22588 82.154544,191.19583 h -23.36681 l 20.594476,31.10016 z m 135.84433,15.63346 36.43639,140.40931 h -30.70412 l -7.5249,-29.11992 H 206.7011 l -7.52491,29.11992 H 173.4331 l 36.43638,-140.40931 z m -7.12885,90.50731 -11.48538,-44.16973 -11.48539,44.16973 z m -97.24012,-41.585 c 0,-32.47591 -17.23849,-53.27883 -44.961825,-53.27883 -36.832429,0 -51.673793,35.85273 -51.673793,74.26935 0,38.41662 14.841364,74.45695 51.673793,74.45695 27.723335,0 44.961825,-20.99052 44.961825,-53.46642 h -29.70357 c 0.60449,20.40687 -6.33676,29.70357 -15.445856,29.70357 -11.089334,0 -18.822685,-13.67407 -18.822685,-50.6941 0,-37.02003 7.733351,-50.5065 18.822685,-50.5065 9.109096,0 16.050346,9.1091 15.445856,29.49514 h 29.70357 z m 246.73767,48.71386 c 0,16.23795 -7.3373,22.97076 -17.82214,22.97076 -10.48484,0 -17.82214,-6.73281 -17.82214,-22.97076 v -97.63617 h -30.70412 v 96.63563 c 0,29.11992 17.63455,47.73415 46.54602,47.73415 28.91148,0 46.54602,-18.61423 46.54602,-47.73415 v -96.63563 h -26.72279 v 97.63617 z"
     class="st1" /></g>
</svg>